<svg xmlns="http://www.w3.org/2000/svg" viewBox="0 0 255.15 130.69"><defs><style>.cls-1{fill:#fff;}.cls-2,.cls-3{fill:#018a38;}.cls-3{fill-rule:evenodd;}</style></defs><title>logo_coprofesionales</title><g id="Capa_2" data-name="Capa 2"><g id="Capa_1-2" data-name="Capa 1"><path class="cls-1" d="M119.71,1.54C93.65,1.54,72.53,22,72.53,47.14s21.12,45.61,47.18,45.61S166.9,72.33,166.9,47.14s-21.12-45.6-47.19-45.6"/><path class="cls-2" d="M246.91,72c-1.09-1.43-2-1.26-2.62-7.34a47,47,0,0,1-5.57-5.07l-.08-5.91s-2.79,1.69-3.89-2.28S237,47.51,237,47.51l.08-3.64-1.46-.39L231,43.06a23,23,0,0,1,0-3.49c-3.21-1.44-9.52-6.64-9.52-6.64l.4-2.31-5.24-4-1.49-.26s-3.91-6.75-9-7a31.21,31.21,0,0,0-7.59-2.28l-8.44-4.65-5.33-.16-3.21-1.1s-4.06,3-7,1.6c-2.54-3.71-2.45-1.1-3.72-.5a2.27,2.27,0,0,1-3-1.1s-1.07-1.18-.4-1.86,3.8-.67,3.8-.67,1.61-1.35.25-1.52c-7.42.17-9.87,1.35-14.52.42-.42-1.35-1.35-1.69-8.44-1.1-1.35-3.46-1.18-.67-6.22-1.39l-.27.08A50,50,0,0,0,119.94,0C96.17,0,76.38,16.43,72.05,38.17l-1,.46H66.46l-5.07-4.22-1.26-1.9-6.75-4.22-.85-1.69V23.86l-2.74,1.27,5.49,6.75-.22,1.26h-4l-4-.42H44.51l-3.37-.21s-.25-3.87-4-1.85a4.08,4.08,0,0,1-1-3.42s.5-1.52-1.4-2.15c-.38-.76.55-1.86.55-1.86s2.37,2,2.87,1.35c1.65-1.9-.88-3.67-.88-3.67a13.51,13.51,0,0,1-4.06,1.27A2.43,2.43,0,0,1,30.76,21v-5.2l2-2L22.14,5.71s0,1.9-.75,2.28-3.25-1.64-3.25-1.64S12.9.77,9.35,5.21c-1.14,3-3,8.86-3,8.86s0,11.91-.13,13.17c5.82,2.28,2.41,4.44,8.1,4.69a5.53,5.53,0,0,1,.06,1.42,11.31,11.31,0,0,0-6.12,3.8c-2.8,3.39.21,5.06.21,5.06s3.32,5.42,1,8.21A22.06,22.06,0,0,1,0,57l.23,2.18a9.49,9.49,0,0,0,4,.78,15.11,15.11,0,0,0,3,4.43l-.1,6.57a3.13,3.13,0,0,0,2.63.39c.66-7.36-.09-10-.09-10a21.74,21.74,0,0,1,11.7-2.64c3,4.67,7.8.42,7.8.42s6.25-2,7.18.64S38,64.16,38,64.16s1.48,1.62,2.32.21a3.38,3.38,0,0,1,3.17-1.06,14.29,14.29,0,0,0,5.41.79C50.64,66.63,54,66.26,54,66.26s3.15-1.76,4,2.54c-.92,4.92,3.26,4.42,3.26,4.42s.53,4.65.53,5.28c3,3.33.23,3.08,3.38,6.33a5,5,0,0,0,3.8,0s5.59,2.19,7,3.33a2.28,2.28,0,0,0,2.93-1.43l.86-7.56,3.42.76.15,2.58,1.68.21.58,4.68a20.17,20.17,0,0,1,5.32,11.53c-2.79,5.7.22,5.94.22,5.94s7.76,1.91,20.46-1.47a7.87,7.87,0,0,1,3.13-2.45s-.38-4.3,2.28-4.56c10.29,1.77,12-1.44,12.29-3,22.47-4.22,39.44-23.32,39.44-46.26a45.73,45.73,0,0,0-1.84-12.83l.61-1,1.68-.79s4.32-.74,7,4.38c.88,5,3.8,2.32,3.8,2.32s6.16,4.63,8,5.49a3,3,0,0,1,2.11,2.74l1.27,6.22a19.71,19.71,0,0,0,2.91,2.92c3.29,1.64,2.66-2.54,2.66-2.54a2.8,2.8,0,0,1,2.28-1.64c1.77-.26,1.85,1.16,1.85,1.16a11.73,11.73,0,0,0-.21,2.74c1.27,1.41,2.32-1.05,2.32-1.05a6.44,6.44,0,0,0,2.5.06c1.26-.25,1.72-3.23,1.72-3.23a20.69,20.69,0,0,0,1.7,5.51c-2.29-2.92-2.79-.89-2.79-.89l-2.29-.4-.5,3.19-3.08-.24L199.84,62s4.43,7-4.05,6.2c-3.8-.63-2.66,2.41-2,4,12.92,19,9,21.15,17.1,25,.76,3.68,3.71,5.92,4.39,6.59a3.24,3.24,0,0,0,2.95-2.37V95.63a6.06,6.06,0,0,1,4.48-2.11c3.46-1.26,1.61-2.78.68-3.37-2.62-2.62-2.71-1.52-2.37-3.63,0,0,0-2.87,2.64-1.69,3.19,3,4.64,4.22,4.64,4.22a15.51,15.51,0,0,1,.82,2.87c6.93-4.9,7.24-2.5,8.47-7.09,5.64.33,1.92-4.22,1.92-4.22a2.58,2.58,0,0,1,.42-2.12c.68-4.3,3.21-4,3.21-4l4.4-.51s.5-.5-.6-1.94m-80-24.85c0,25.19-21.12,45.61-47.19,45.61S72.53,72.33,72.53,47.14s21.12-45.6,47.18-45.6S166.9,22,166.9,47.14"/><path class="cls-2" d="M153.88,32.85c0-10.5-15.12-19-33.76-19s-33.76,8.51-33.76,19c0,9.34,12,17.11,27.77,18.7a26.5,26.5,0,0,0,5.77.65,27.14,27.14,0,0,0,5.39-.56c16.19-1.41,28.59-9.28,28.59-18.79m-4.42,8.71h-9.25a16.64,16.64,0,0,0,2.37-8.46c0-.08,0-.17,0-.26h10.77v0a12.6,12.6,0,0,1-3.88,8.67M97.75,32.87h21.36v8.73H100.2a16.24,16.24,0,0,1-2.46-8.52c0-.07,0-.14,0-.21m51.63-8.74a12.83,12.83,0,0,1,3.93,8.17H142.55a16.63,16.63,0,0,0-2.44-7.81V25h-.46a16.29,16.29,0,0,1,2.22,7.34H119.82V24.12h15.26v-.6H119.82V14.47a23.57,23.57,0,0,1,17.56,7.37h.79a23.22,23.22,0,0,0-12.63-7.21c9.89.91,18.31,4.25,23.21,8.88h-8.83v.61Zm-30.27-.6H100.88c3.75-5.27,10.48-8.84,18.23-9Zm-18.82,0H91.38c4.8-4.56,13-7.87,22.66-8.86a22.6,22.6,0,0,0-13.75,8.85m-.39.57a16.71,16.71,0,0,0-2.64,8.16H86.86a12.82,12.82,0,0,1,3.94-8.16Zm.57,0h18.64v8.16H97.79a16.32,16.32,0,0,1,2.68-8.16m18.64,18v9.27c-1.57,0-3.12-.11-4.63-.26a22,22,0,0,1-14-9Zm1,9.28h-.26V42.11h19.29A22.07,22.07,0,0,1,124.8,51.2c-1.55.13-3.12.19-4.72.19m-.26-9.8V32.86h22.07v.23a16.26,16.26,0,0,1-2.44,8.49Zm-33-8.7v0h10.4a1.93,1.93,0,0,0,0,.24A16.63,16.63,0,0,0,99.6,41.6H90.75a12.61,12.61,0,0,1-3.92-8.72m4.42,9.21h8.64a21.77,21.77,0,0,0,11.16,8.58c-8.44-1.32-15.52-4.45-19.8-8.59m48.64,0h9c-4.41,4.24-11.76,7.43-20.52,8.68a21.86,21.86,0,0,0,11.52-8.69"/><path class="cls-2" d="M136.44,50.67s4.13-3.7,6.09-1.63c0,0,1.2,2.73-1.85,4.85l-4.91,4.54s-1.31,3.71,2.5,1.2l11.13-8.29s1.86-7.64,2.84-12.88a4.94,4.94,0,0,1,4.54-2.88s.51,2.2-.84,8.81c0,0-.63,6.63-.87,9.68A10.1,10.1,0,0,1,151.58,60L138.94,70.88a3.47,3.47,0,0,0-.45,2.71l2.81,8.91H124.92l-2.44-14.16s-.63-4.23,2.6-6.53Z"/><path class="cls-2" d="M103.44,50.73s-4.12-3.7-6.09-1.62c0,0-1.2,2.72,1.85,4.84l4.91,4.54s1.32,3.71-2.5,1.2L90.48,51.4s-1.86-7.64-2.84-12.88a4.92,4.92,0,0,0-4.54-2.88s-.51,2.2.85,8.81c0,0,.62,6.63.86,9.68A10.1,10.1,0,0,0,88.3,60l12.64,10.93a3.47,3.47,0,0,1,.45,2.71l-2.81,8.91H115L117.4,68.4s.63-4.23-2.6-6.53Z"/><path class="cls-3" d="M141.89,30.35a7.06,7.06,0,0,0-.53-2.25c0-.11.13-.05.07-.19s-.63-1.14-.76-1.54c-.32-.61-.43-.92-.83-1.13a2.31,2.31,0,0,0,.69-2.46c-.3-.75-.93-.34-1.22-.74-.11-2.17-3.27-1.86-3.22-.23-.86.77-2,.16-1.31,3.1.08.22.37.5.18.72a13.15,13.15,0,0,0-1.29,2.76c0,.1.13.08.14.19,0,.28-.25.44-.41.63s-.17.18-.41.15c-.39-.07-.22-2.18-.93-4.74-.08-.83,0-1.66-.1-2.53a3,3,0,0,0-.41-1.24c-.05-.06-.19-.1-.25-.15-.42-.09-.69,0-1-.23-.22-1.27.55-4.34-1-5.32-3.26-.44-3.28,2.17-3.21,5.19,0,.06,0,.23-.08.23a7.86,7.86,0,0,0-1.14.19.85.85,0,0,0-.39.53c-.07.65,0,2.09-.09,3.44a36.92,36.92,0,0,0-.88,5.18A10.55,10.55,0,0,0,123,28a21.84,21.84,0,0,0,0-3.12c0-.11.31-.11.31-.19.06-1.78-.34-1.56-.71-3-.46-.73-.5-1-1-1.12a1.9,1.9,0,0,1-1.67-.9c-.09-.34.13-.42.23-1a2.1,2.1,0,0,0,.63-2.9c-.3-.19-.63-.7-1-.8a3.13,3.13,0,0,0-2.13.32,1.17,1.17,0,0,0-.72,1.12c0,.15,0,.05.11.22a1.63,1.63,0,0,0,0,.73c.09.2.43.12.44.29a3.89,3.89,0,0,0,.43,1.43c.1.56-.34.59-.63,1.05a4.5,4.5,0,0,1-1.28.47,1.7,1.7,0,0,0-1,.35c-.58.54-.55,1.36-1.22,2.92-.06.14.4.5.33.65a28.55,28.55,0,0,0-.8,2.88c-.43.78-.61,3.26-1.18,4.83-.06,0-.28.07-.33,0-.48-.42-.69-1.28-1.1-1.74a6.24,6.24,0,0,1-.35-2.24c0-.09.1,0,.09-.1a5.12,5.12,0,0,0-.33-1.95.61.61,0,0,0-.38-.27c-.19-.11-2.38.13-1.53-1.74.73-.78.83-.86.89-1.1.16-.44.89-1.41.24-1.87,0-.24-.18-.27-.23-.4s-.17-.49-.82-.68a2.29,2.29,0,0,0-1.82.08c-.46.47-.59.42-.69.72a2.56,2.56,0,0,0-.32,1.3c0,.11.25.17.26.28a3.21,3.21,0,0,0,.59,1.54c.17.1.2.55.07.86s0,.26-.18.35a5.32,5.32,0,0,1-2,.55c-.32.08-.34.25-.41.44a13.76,13.76,0,0,1-.86,2.13c.23.11.23.11.4.08-.12.36-.59,1.44-1.07,2.58a15.46,15.46,0,0,0-1.2,3c0,.22-.43.57-.44.78s-.16.89.59.89c1.08-.15.36-.72.36-.72a1.88,1.88,0,0,1,0-.72A14.36,14.36,0,0,0,103,31.4a23.19,23.19,0,0,0,1.65-2.6c0-.07.07,0,.14.05s.06-.19.16-.11c-.18,1.34-.16,3.63-.36,5.3-.26,2.13-.86,4.37-.77,6.24a.8.8,0,0,0,.7.16c.07,1.35.2,2.28.27,3.55,0,.21.16.33.17.46,0,1,.17,2.32.23,3.27.06.57,0,.62-.19.82a.5.5,0,0,0,.07.85,1.72,1.72,0,0,0,.93,0c.1-.07.15-.25.13-1,0,0,0-.68,0-.7,0-1.09,0-2.18,0-3.49a4,4,0,0,0,0-.6c.07-1.59,0-2.39.13-3.31.14.08.2,0,.37,0,.09-1.16.2-2.33.23-3.36.07.06.09,0,.15,0,.11,1,0,1.81,0,3.11,0,.11.53,0,.53.1,0,1.18.23,2.52.27,3.91a25.43,25.43,0,0,1,.23,2.86,1.38,1.38,0,0,1-.1.83c0,.1-.62.45.28.87,0,0,1.77,1.07,2.11.85.12-.09.17-.18.16-.25,0-.24-.75-.62-.92-.72a3.77,3.77,0,0,1-.46-.54,1.07,1.07,0,0,1-.23-.52c0-1,0-2.13.11-3.61,0-.1.11-.12.13-.35,0-1.14.09-1.8.08-3.39.36,0,.73.07.75-.08.24-1.88-.36-3.79-.41-5.6,0-.86-.66-5-.43-5.79.17-.19.14.84.82,2.34a5.8,5.8,0,0,0,1.21,1.18c.17.3,0,1.05.12,1.35.28.47.55.49.87.83.89-.16.37-1.14.7-1.7,0,0,.12-.09.35.22.26.72.4.46.43.41s-.23-.89-.24-1.11c-.22-2.43.92-3.85.92-4.59a10.92,10.92,0,0,1,1.16-2.42s.08.08.1.06.07-.14.12-.08c-.13,2.16-.49,3.79-.58,5.25,0,.5-.31,1,.22,1,0,1.07.07,2.43.07,2.43s0,3,0,3.29c.16,2.67.11,5.82.33,8.59,0,.08.14,0,.14,0s0,.31,0,.4,0,0,0,.13a11.62,11.62,0,0,0-.38,1.79.32.32,0,0,0,.27.25,8.56,8.56,0,0,0,1.59.08.19.19,0,0,0,.2-.17c.12-1.08-.21-1.23-.25-2,0,0,0,0,0-.07a1.9,1.9,0,0,1,0-.25s.18.1.19,0c.08-1.89.39-11.6.52-12,.17,0,.21.15.27.31.28.82.56,8.31.84,12.55,0,.27.21,0,.23.22s.15.28.16.43-.1.31-.1.45c0,1,0,1.55.12,1.63a2,2,0,0,0,1.61.15l.2-.12c0-.39-.22-1.29-.27-2,0-.17.11-.29.12-.43s.25,0,.24-.2c.11-2.87-.35-6.55-.21-8.44,0-.66-.07-3.42,0-4-.13-2.33-.15-1-.25-2.88-.08-.34.34-.11.28-.48a44,44,0,0,1,0-6.43c.1-.07.11.42.16.63s.13,0,.16,0c.15.65.19,1.91.4,3s.73,1.23,1,2.86c0,.19-.14.55,0,.77,0,.07,0,.15.07.24a1,1,0,0,0,.15.32c0,.12-.06.23.06.3a.78.78,0,0,0,.58-.08h.17c.39-.38.48-.56.46-.67v0c0-.28-.2-.63-.41-1a8.91,8.91,0,0,1,.43-2.47,7.91,7.91,0,0,0,.71-2.68,2,2,0,0,1,.39-.67c0-.09.18-.45.32-.07a3.87,3.87,0,0,1,.17,2.22c-1.87,2.48-.62,8.08-.18,16.64a1.58,1.58,0,0,0,.49,0,2.65,2.65,0,0,1-.38,1.87,1.58,1.58,0,0,0-.24.54c0,.22,0,.23.12.28a1.42,1.42,0,0,0,.84-.14c.31-.44.2-.71.43-1.53,0,0,0,.42,0,.67l0,0c0-.28.06-.45.12-.82.13-.16.23-.54,0-.62a.72.72,0,0,1,0-.36c.07-.15.91-.13.94-.09s0,.21,0,.31-.3.3-.3.5a.88.88,0,0,0,.13.46,8.29,8.29,0,0,0,0,1s.09,0,.12,0c.08-.46.21-.62.38-.6s.49.94.94,1.28c.73.18.59-.13.61-.21-.52-.44-.66-.75-.9-1.8a1.51,1.51,0,0,1-.25-1.18c0-.2.27,0,.29-.14.19-1.29.08-2.74.16-3.81.2-2.52,1.15-7.33,1.11-10.21a5.63,5.63,0,0,0-.51-2.18,6.58,6.58,0,0,1,.05-1.39c.1-.37.36-.51.37-1,.22,0,.22,0,.28.2.29.91.46,1.85.74,2.79s.6,1.71.71,2.31c0,.14.16.34.09.48-.19.53-.77.63-.81.9s-.15.27,0,.39c.28.29.16.55.56,1,.49.12.83-.11.76-.61.53,0,.22-.75.33-1.35.05-.27.3-.43.42-.63.32-.55.81-.81,1-1.19,0,0,.12.08.16-.05a8.94,8.94,0,0,1,.67-1.74c.41.05-.16,3.62-.44,4.67-.37.85-.44,4.76-.66,6.28,0,.63.58.1.74.36.16,1.12.4,3.16.5,3.29s.07.1.09.25C136,43.69,136,45,136,46c0,.06-.11.13-.11.29a2.37,2.37,0,0,0,0,.8c0,.36,1.24.52,1.33,0,0-.16-.16-.47-.47-1,0-.08,0-.05-.05-.17a38.39,38.39,0,0,1,.08-3.85,15.33,15.33,0,0,1,.07-2.25c0-.66,0-1.3.22-1.26h.31a14.13,14.13,0,0,1,.16,3s0,.13,0,.17c0,.87-.05,1.74-.06,2.44,0,.24-.2.47-.17.65s.15.45.63,1c.32.34.4.59,1,.51s0-.38,0-.6a2.89,2.89,0,0,1-.44-.77c0-.14-.22-.61-.27-.81,0-.62.06-1.44.16-2.41,0,0,.05-.06.06-.16.11-.31.2-2.07.39-3.31a1.56,1.56,0,0,0,1-.19c-.14-2.5-.06-4.64-.12-6.15a26.42,26.42,0,0,1-.23-4.83,6.35,6.35,0,0,0,.71,1.61.17.17,0,0,1,.19-.11c.19.64.76,1.27.71,1.85a13.9,13.9,0,0,1,0,2.58c-.53.16-.29.78-.57,1.23-.23.26,0,.42.12.42.36,0,.8,0,1-.27s.15-.55.2-.81c-.08-1.46.24-2.59,0-3.38m-6.64-5.14c.08-1.89.49-1.54.68-2.35.35.06.15.65.56,1a1,1,0,0,1,.37.81c-.64-.06-.94.31-1.61.56m2.87-.77c-.24-1,.75-1,.77-1.66.78,0,.44,1.6.62,2.23a12.26,12.26,0,0,0-1.39-.57"/><path d="M8.78,117.19v2.36H8A3.28,3.28,0,0,0,7,118.38,2.07,2.07,0,0,0,5.82,118a2.47,2.47,0,0,0-2.12,1.12,5.24,5.24,0,0,0-.78,3,5.48,5.48,0,0,0,.77,3.09,2.42,2.42,0,0,0,2.09,1.14,2.2,2.2,0,0,0,1.31-.37A2.44,2.44,0,0,0,8,124.94h.83v2.45a4.53,4.53,0,0,1-1.33.68,4.86,4.86,0,0,1-1.5.22,4.82,4.82,0,0,1-3.86-1.6,7.7,7.7,0,0,1,0-8.78,4.34,4.34,0,0,1,3.53-1.64,5.58,5.58,0,0,1,1.55.22,8.32,8.32,0,0,1,1.64.7"/><path d="M10.4,122.13a6.87,6.87,0,0,1,1.2-4.33A4.08,4.08,0,0,1,15,116.28a4,4,0,0,1,3.37,1.54,6.89,6.89,0,0,1,1.2,4.32,7.63,7.63,0,0,1-1.17,4.58,4,4,0,0,1-3.4,1.57,4,4,0,0,1-3.42-1.57,7.62,7.62,0,0,1-1.17-4.59m4.57-4a1.9,1.9,0,0,0-1.72,1.11,6.43,6.43,0,0,0-.62,3.09,6.32,6.32,0,0,0,.62,3.09,1.91,1.91,0,0,0,3.45,0,8.16,8.16,0,0,0,0-6.19A1.92,1.92,0,0,0,15,118.08"/><path d="M20.88,122.13a6.93,6.93,0,0,1,1.2-4.33,4.09,4.09,0,0,1,3.39-1.52,4,4,0,0,1,3.37,1.54,6.89,6.89,0,0,1,1.21,4.32,7.56,7.56,0,0,1-1.18,4.58,4,4,0,0,1-3.4,1.57,4,4,0,0,1-3.41-1.57,7.62,7.62,0,0,1-1.18-4.59m4.58-4a1.89,1.89,0,0,0-1.72,1.11,8.07,8.07,0,0,0,0,6.18,1.91,1.91,0,0,0,3.45,0,6.25,6.25,0,0,0,.62-3.1,6.43,6.43,0,0,0-.62-3.09,1.89,1.89,0,0,0-1.72-1.11"/><path d="M31.79,116.45h3.4a5.14,5.14,0,0,1,3.36.92,3.4,3.4,0,0,1,1.11,2.78,3.7,3.7,0,0,1-1,2.78,4,4,0,0,1-2.89,1H34v4.15H31.79ZM34,118.32v4.1l.25,0h.38a3.52,3.52,0,0,0,2.15-.52,2,2,0,0,0,.68-1.65,2,2,0,0,0-.5-1.42,1.81,1.81,0,0,0-1.36-.53Z"/><polygon points="41.4 116.45 48.03 116.45 48.03 118.29 43.58 118.29 43.58 121.12 47.53 121.12 47.53 122.79 43.58 122.79 43.58 126.29 48.17 126.29 48.17 128.1 41.4 128.1 41.4 116.45"/><polygon points="71.5 118.29 68.48 118.29 68.48 116.45 76.77 116.45 76.77 118.29 73.7 118.29 73.7 128.1 71.5 128.1 71.5 118.29"/><rect x="78.08" y="116.45" width="2.18" height="11.65"/><path d="M105.81,116.45h3.4a5.14,5.14,0,0,1,3.36.92,3.4,3.4,0,0,1,1.11,2.78,3.7,3.7,0,0,1-1.05,2.78,4,4,0,0,1-2.9,1H108v4.15h-2.19Zm2.19,1.87v4.1l.24,0h.38a3.5,3.5,0,0,0,2.15-.52,1.94,1.94,0,0,0,.68-1.65,2,2,0,0,0-.5-1.42,1.78,1.78,0,0,0-1.35-.53Z"/><path d="M124.59,122.13a6.87,6.87,0,0,1,1.2-4.33,4.5,4.5,0,0,1,6.76,0,6.89,6.89,0,0,1,1.2,4.32,7.63,7.63,0,0,1-1.17,4.58,4.49,4.49,0,0,1-6.82,0,7.62,7.62,0,0,1-1.17-4.59m4.57-4a1.89,1.89,0,0,0-1.72,1.11,6.43,6.43,0,0,0-.62,3.09,6.33,6.33,0,0,0,.61,3.09,1.91,1.91,0,0,0,3.46,0,8.1,8.1,0,0,0,0-6.19,1.89,1.89,0,0,0-1.72-1.11"/><polygon points="135.49 116.45 142.27 116.45 142.27 118.31 137.68 118.31 137.68 121.55 142.03 121.55 142.03 123.29 137.68 123.29 137.68 128.1 135.49 128.1 135.49 116.45"/><polygon points="144.01 116.45 150.65 116.45 150.65 118.29 146.2 118.29 146.2 121.12 150.15 121.12 150.15 122.79 146.2 122.79 146.2 126.29 150.79 126.29 150.79 128.1 144.01 128.1 144.01 116.45"/><path d="M152.11,125H153a2.91,2.91,0,0,0,1.1,1.08,3.34,3.34,0,0,0,1.59.34,2.73,2.73,0,0,0,1.58-.39,1.31,1.31,0,0,0,.56-1.12c0-.65-.76-1.25-2.27-1.82l-.12,0a6.66,6.66,0,0,1-2.5-1.39,2.78,2.78,0,0,1-.64-1.91,3.1,3.1,0,0,1,1.09-2.47,4.25,4.25,0,0,1,2.86-.94,6.7,6.7,0,0,1,1.55.17,8.74,8.74,0,0,1,1.57.52v2.31h-.77a2.7,2.7,0,0,0-.91-1,2.34,2.34,0,0,0-1.22-.33,2,2,0,0,0-1.31.44,1.35,1.35,0,0,0-.52,1.06c0,.64.66,1.2,2,1.68l.33.12a6.28,6.28,0,0,1,2.44,1.46,2.93,2.93,0,0,1,.72,2,3.08,3.08,0,0,1-1.14,2.47,4.47,4.47,0,0,1-3,1,7.8,7.8,0,0,1-2.17-.29,5.77,5.77,0,0,1-1.79-.89Z"/><rect x="161.7" y="116.45" width="2.19" height="11.65"/><path d="M165.64,122.13a6.8,6.8,0,0,1,1.21-4.33,4.07,4.07,0,0,1,3.39-1.52,4,4,0,0,1,3.36,1.54,6.83,6.83,0,0,1,1.21,4.32,7.63,7.63,0,0,1-1.18,4.58,4.48,4.48,0,0,1-6.81,0,7.62,7.62,0,0,1-1.18-4.59m4.58-4a1.92,1.92,0,0,0-1.73,1.11,6.44,6.44,0,0,0-.61,3.09,6.33,6.33,0,0,0,.61,3.09,1.91,1.91,0,0,0,3.46,0,8.1,8.1,0,0,0,0-6.19,1.89,1.89,0,0,0-1.72-1.11"/><polygon points="196.64 116.45 198.83 116.45 198.83 126.28 202.97 126.28 202.97 128.1 196.64 128.1 196.64 116.45"/><polygon points="204.5 116.45 211.13 116.45 211.13 118.29 206.68 118.29 206.68 121.12 210.63 121.12 210.63 122.79 206.68 122.79 206.68 126.29 211.27 126.29 211.27 128.1 204.5 128.1 204.5 116.45"/><path d="M212.59,125h.93a2.86,2.86,0,0,0,1.11,1.08,3.3,3.3,0,0,0,1.58.34,2.79,2.79,0,0,0,1.59-.39,1.3,1.3,0,0,0,.55-1.12c0-.65-.75-1.25-2.26-1.82l-.13,0a6.6,6.6,0,0,1-2.49-1.39,2.73,2.73,0,0,1-.65-1.91,3.08,3.08,0,0,1,1.1-2.47,4.21,4.21,0,0,1,2.86-.94,6.61,6.61,0,0,1,1.54.17,8.74,8.74,0,0,1,1.57.52v2.31h-.77a2.7,2.7,0,0,0-.91-1A2.34,2.34,0,0,0,217,118a2,2,0,0,0-1.31.44,1.38,1.38,0,0,0-.52,1.06c0,.64.66,1.2,2,1.68l.33.12a6.41,6.41,0,0,1,2.45,1.46,3,3,0,0,1,.71,2,3.08,3.08,0,0,1-1.14,2.47,4.45,4.45,0,0,1-3,1,7.8,7.8,0,0,1-2.17-.29,5.88,5.88,0,0,1-1.79-.89Z"/><polygon points="244.88 116.45 247.07 116.45 247.07 126.28 251.22 126.28 251.22 128.1 244.88 128.1 244.88 116.45"/><path d="M234.66,124.1l2,4h2.58l-3-5.36a3.86,3.86,0,0,0,1.6-1.11,2.87,2.87,0,0,0,.61-1.86,2.79,2.79,0,0,0-1.22-2.51,7.06,7.06,0,0,0-3.81-.81h-2.51V128.1h2.19v-4.84h.18a4.45,4.45,0,0,0,.53,0,2.2,2.2,0,0,0,.37-.06l.42.83a.93.93,0,0,0,0,.1m-1-2.14h-.55V118.1h1.47a1.57,1.57,0,0,1,1.19.5,2.19,2.19,0,0,1-.16,2.87,3.09,3.09,0,0,1-2,.49"/><path d="M119.14,124.1l2,4h2.58l-3-5.36a3.86,3.86,0,0,0,1.6-1.11,2.87,2.87,0,0,0,.61-1.86,2.79,2.79,0,0,0-1.22-2.51,7.06,7.06,0,0,0-3.81-.81h-2.51V128.1h2.19v-4.84h.18a4.45,4.45,0,0,0,.53,0,2.5,2.5,0,0,0,.38-.06l.4.83a.31.31,0,0,1,0,.1m-1-2.14h-.55V118.1h1.47a1.57,1.57,0,0,1,1.19.5,2.2,2.2,0,0,1-.15,2.87,3.14,3.14,0,0,1-2,.49"/><path d="M53.87,124.1l2,4h2.58l-3-5.36a3.86,3.86,0,0,0,1.6-1.11,2.87,2.87,0,0,0,.61-1.86,2.79,2.79,0,0,0-1.22-2.51,7.06,7.06,0,0,0-3.81-.81H50.13V128.1h2.2v-4.84h.18a4.45,4.45,0,0,0,.53,0,2.2,2.2,0,0,0,.37-.06l.41.83a.31.31,0,0,1,0,.1m-1-2.14h-.54V118.1H53.8a1.57,1.57,0,0,1,1.19.5,2.17,2.17,0,0,1-.15,2.87,3.15,3.15,0,0,1-2,.49"/><polygon points="184.17 116.45 183.01 116.45 183.01 122.74 183.01 125.07 179.22 116.45 176.55 116.45 176.55 128.1 177.55 128.1 178.39 128.1 178.39 121.44 178.39 119.1 182.37 128.1 184.85 128.1 184.85 116.45 184.17 116.45"/><path d="M222,125.54h2.61v2.18a3.54,3.54,0,0,1-.6,2.22,2.06,2.06,0,0,1-1.72.75h-.21v-.91a1.16,1.16,0,0,0,.9-.4,1.58,1.58,0,0,0,.31-1.06v-.44H222Z"/><rect x="240.32" y="125.53" width="2.61" height="2.56"/><rect x="252.54" y="125.53" width="2.61" height="2.56"/><path d="M64.61,116.45H62.19L58.87,128.1H61v0l.53-2.37H65.1l.53,2.42H68Zm-2.76,7.87.21-1c0-.18.09-.35.13-.53l.65-3,.43-2h.16l.21,1c0,.13,0,.25.07.37l.43,2,.68,3.15Z"/><path d="M96.71,116.45H94.29L91,128.1h2.13v0l.52-2.37H97.2l.53,2.42h2.41ZM94,124.32l.21-1c0-.18.09-.35.13-.53l.65-3,.44-2h.15l.21,1c0,.13,0,.25.07.37l.43,2,.68,3.15Z"/><path d="M191.91,116.45h-2.42l-3.32,11.65h2.14v0l.53-2.37h3.55l.53,2.42h2.41Zm-2.77,7.87.22-1c0-.18.09-.35.13-.53l.65-3,.44-2h.15l.21,1c0,.13,0,.25.07.37l.43,2,.68,3.15Z"/><polygon points="88.3 116.45 86.03 125.82 83.75 116.45 81.7 116.45 84.95 128.19 86.98 128.19 90.42 116.45 88.3 116.45"/></g></g></svg>